<?xml version="1.0" encoding="UTF-8"?>
<svg width="256px" height="256px" viewBox="0 0 256 256" version="1.1" xmlns="http://www.w3.org/2000/svg" preserveAspectRatio="xMidYMid">
    <g>
        <path d="M0,222.991225 C0,241.223474 14.7785318,256 33.0087747,256 L222.991225,256 C241.223474,256 256,241.221468 256,222.991225 L256,33.0087747 C256,14.7765263 241.221468,0 222.991225,0 L33.0087747,0 C14.7765263,0 0,14.7785318 0,33.0087747 L0,222.991225 Z" fill="#563D7C"></path>
        <path d="M106.157563,113.238095 L106.157563,76.9845938 L138.069328,76.9845938 C141.108559,76.9845938 144.039202,77.2378593 146.861345,77.7443903 C149.683488,78.2509213 152.179961,79.1554333 154.35084,80.4579264 C156.521719,81.7604195 158.258397,83.5695496 159.560924,85.8852638 C160.863452,88.201978 161.514706,91.1324097 161.514706,94.6766074 C161.514706,101.298352 159.560944,106.155925 155.653361,109.249432 C151.745779,112.342939 146.752832,113.889676 140.67437,113.889676 L106.157563,113.238095 Z M72.07493,50.5 L72.07493,205.5 L147.186975,205.5 C154.133788,205.5 160.899594,204.631661 167.484594,202.894984 C174.069594,201.158307 179.93088,198.480075 185.068627,194.860294 C190.206375,191.240514 194.294803,186.579684 197.334034,180.877806 C200.373264,175.175928 201.892857,168.33061 201.892857,160.342282 C201.892857,150.750519 200.064287,142.807358 196.407143,136.512799 C192.749999,130.218241 187.324405,124.623233 180.130362,119.727774 C185.912051,114.07261 190.233686,108.455025 193.09524,102.874974 C195.956794,97.2949232 197.387544,91.0535864 197.387544,84.1506466 C197.387544,77.8901523 196.915577,72.4671391 195.971631,67.8815649 C195.027685,63.2959907 193.168740,59.4260324 190.394578,56.2716759 C187.620415,53.1173195 183.827314,50.6815483 178.169742,48.9643402 C172.512170,47.2471321 165.326696,46.3885341 156.613505,46.3885341 L72.07493,50.5 Z M106.157563,179.015406 L106.157563,136.466387 L143.279412,136.466387 C150.660092,136.466387 156.594975,138.166883 161.084061,141.567927 C165.573147,144.968971 167.817618,150.649353 167.817618,158.609244 C167.817618,162.661552 167.166364,165.973269 165.863837,168.544398 C164.561309,171.115526 162.758509,173.146279 160.455374,174.636654 C158.152239,176.127029 155.459448,177.155791 152.376962,177.722939 C149.294476,178.290087 146.024143,178.573655 142.565927,178.573655 L106.157563,179.015406 Z" fill="#FFFFFF"></path>
    </g>
</svg>
