<?xml version="1.0" encoding="UTF-8"?>
<svg width="256px" height="148px" viewBox="0 0 256 148" version="1.1" xmlns="http://www.w3.org/2000/svg" preserveAspectRatio="xMidYMid">
    <g fill="#ffffff">
        <path d="M48.7706068,123.583047 L32.5856549,97.7340481 L65.9742373,47.3849783 L48.8891314,47.3849783 L24.2076525,84.5894753 L0,47.3849783 L0.0394018844,47.3849783 L-0.000271391076,47.3849783 L16.1847206,73.2339772 L-17.2038618,123.583047 L0,123.583047 L24.6814789,86.378451 L48.7706068,123.583047 Z M48.7706068,123.583047 L48.7706068,123.583047 L48.8100087,123.583047 M72.4832684,123.583047 L100.037879,47.3849783 L83.3558024,47.3849783 L55.8011914,123.583047 L72.4832684,123.583047 Z M100.762435,123.583047 L128.317046,47.3849783 L111.63497,47.3849783 L84.0803585,123.583047 L100.762435,123.583047 Z M170.726563,103.62621 C168.842728,114.149973 161.043651,126.033825 143.441677,126.033825 C127.463999,126.033825 115.297354,115.906596 115.297354,96.4514937 C115.297354,77.3933604 127.067678,66.4733429 142.649517,66.4733429 C157.440443,66.4733429 171.122884,75.6367796 171.122884,97.7340481 L171.122884,101.869587 L131.275182,101.869587 C131.275182,113.753439 135.642503,117.169055 143.838397,117.169055 C150.448342,117.169055 154.419342,113.357118 155.608223,103.62621 L170.726563,103.62621 L170.726563,103.62621 Z M156.004943,93.4317982 C155.608223,83.3043228 152.332087,75.2404591 142.649517,75.2404591 C134.453623,75.2404591 131.671902,82.5116818 131.275182,93.4317982 L156.004943,93.4317982 L156.004943,93.4317982 Z M197.931903,126.033825 C191.71861,126.033825 185.108665,123.583047 179.688251,119.619842 L179.688251,146.25771 L164.173066,146.25771 L164.173066,68.9241209 L177.804815,68.9241209 L178.598177,75.6367796 C183.621871,69.7167619 189.438636,66.4733429 196.8455,66.4733429 C213.255731,66.4733429 223.334622,81.3241274 223.334622,96.0551732 C223.334622,112.169661 213.652452,126.033825 197.931903,126.033825 L197.931903,126.033825 Z M193.168262,117.169055 C203.24775,117.169055 207.615072,106.645292 207.615072,96.0551732 C207.615072,86.2574138 203.24775,75.2404591 192.771541,75.2404591 C187.747848,75.2404591 183.224752,77.3933604 179.688251,81.3241274 L179.688251,111.377372 C183.224752,114.943452 187.747848,117.169055 193.168262,117.169055 L193.168262,117.169055 Z M255.267564,68.9241209 L255.267564,123.583047 L240.149224,123.583047 L240.149224,68.9241209 L255.267564,68.9241209 Z M240.149224,44.9342003 L255.267564,44.9342003 L255.267564,58.5757592 L240.149224,58.5757592 L240.149224,44.9342003 Z"></path>
    </g>
</svg>
