<?xml version="1.0" encoding="UTF-8"?>
<svg width="256px" height="256px" viewBox="0 0 256 256" version="1.1" xmlns="http://www.w3.org/2000/svg">
    <g>
        <path d="M145.659,0 C146.216,0.442 146.768,0.89 147.325,1.332 C148.187,2.006 149.054,2.675 149.916,3.349 C151.64,4.682 153.363,6.015 155.087,7.348 C156.805,8.677 158.524,10.006 160.242,11.334 C161.961,12.663 163.679,13.992 165.397,15.321 C167.116,16.649 168.834,17.978 170.553,19.307 C172.271,20.635 173.99,21.964 175.708,23.293 C177.427,24.622 179.145,25.951 180.864,27.279 C182.582,28.608 184.3,29.937 186.019,31.266 C187.737,32.594 189.456,33.923 191.174,35.252 C192.893,36.581 194.611,37.91 196.33,39.238 C198.048,40.567 199.766,41.896 201.485,43.225 C203.203,44.553 204.922,45.882 206.64,47.211 C208.359,48.54 210.077,49.869 211.796,51.197 C213.514,52.526 215.232,53.855 216.951,55.184 C218.669,56.512 220.388,57.841 222.106,59.17 C223.825,60.499 225.543,61.828 227.262,63.156 C228.98,64.485 230.698,65.814 232.417,67.143 C234.135,68.471 235.854,69.8 237.572,71.129 C239.291,72.458 241.009,73.787 242.728,75.115 C244.446,76.444 246.164,77.773 247.883,79.102 C249.601,80.43 251.32,81.759 253.038,83.088 C254.757,84.417 256.475,85.746 258.194,87.074 C259.912,88.403 261.63,89.732 263.349,91.061 C265.067,92.389 266.786,93.718 268.504,95.047 C270.223,96.376 271.941,97.705 273.66,99.033 C275.378,100.362 277.096,101.691 278.815,103.02 C280.533,104.348 282.252,105.677 283.97,107.006 C285.689,108.335 287.407,109.664 289.126,110.992 C290.844,112.321 292.562,113.65 294.281,114.979 C296,116.307 297.718,117.636 299.437,118.965 C301.155,120.294 302.873,121.623 304.592,122.951 C306.31,124.28 308.029,125.609 309.747,126.938 C311.466,128.266 313.184,129.595 314.903,130.924 C316.621,132.253 318.34,133.582 320.058,134.91 C321.777,136.239 323.495,137.568 325.214,138.897 C326.932,140.225 328.65,141.554 330.369,142.883 C332.087,144.212 333.806,145.541 335.524,146.869 C337.243,148.198 338.961,149.527 340.68,150.856 C342.398,152.184 344.116,153.513 345.835,154.842 C347.553,156.171 349.272,157.5 350.99,158.828 C352.709,160.157 354.427,161.486 356.146,162.815 C357.864,164.143 359.582,165.472 361.301,166.801 C363.019,168.13 364.738,169.459 366.456,170.787 C368.175,172.116 369.893,173.445 371.612,174.774 C373.33,176.102 375.048,177.431 376.767,178.76 C378.485,180.089 380.204,181.418 381.922,182.746 C383.641,184.075 385.359,185.404 387.078,186.733 C388.796,188.061 390.514,189.39 392.233,190.719 C393.951,192.048 395.67,193.377 397.388,194.705 C399.107,196.034 400.825,197.363 402.544,198.692 C404.262,200.02 405.98,201.349 407.699,202.678 C409.417,204.007 411.136,205.336 412.854,206.664 C414.573,207.993 416.291,209.322 418.01,210.651 C419.728,211.979 421.446,213.308 423.165,214.637 C424.883,215.966 426.602,217.295 428.32,218.623 C430.039,219.952 431.757,221.281 433.476,222.61 C435.194,223.938 436.912,225.267 438.631,226.596 C440.349,227.925 442.068,229.254 443.786,230.582 C445.505,231.911 447.223,233.24 448.942,234.569 C450.66,235.897 452.378,237.226 454.097,238.555 C455.815,239.884 457.534,241.213 459.252,242.541 C460.971,243.87 462.689,245.199 464.408,246.528 C466.126,247.856 467.844,249.185 469.563,250.514 C471.281,251.843 473,253.172 474.718,254.5 C475.575,255.174 476.437,255.843 477.299,256.517 C477.856,256.959 478.408,257.407 478.965,257.849 L478.965,0 L145.659,0 Z" fill="#10AA50"></path>
        <path d="M478.965,257.849 C478.965,257.849 478.965,257.849 478.965,257.849 C478.965,257.849 478.965,257.849 478.965,257.849 L478.965,257.849 Z" fill="#B8C4C2"></path>
        <path d="M145.659,0 L145.659,257.849 C145.659,257.849 145.659,257.849 145.659,257.849 C145.659,257.849 145.659,257.849 145.659,257.849 L145.659,0 Z" fill="#12924F"></path>
    </g>
</svg>
