<?xml version="1.0" encoding="UTF-8"?>
<svg width="256px" height="252px" viewBox="0 0 256 252" version="1.1" xmlns="http://www.w3.org/2000/svg" preserveAspectRatio="xMidYMid">
    <path d="M235.648276,194.211632 C221.729851,193.864559 210.942872,195.257272 201.895604,199.083964 C199.285899,200.127406 195.109927,200.128498 194.761767,203.433458 C196.154498,204.826189 196.328034,207.087716 197.546096,209.001055 C199.635192,212.479551 203.287247,217.178343 206.593317,219.614507 C210.246461,222.397748 213.900691,225.180989 217.727416,227.617153 C224.513092,231.793125 232.168625,234.22929 238.780334,238.405262 C242.433478,240.841426 246.086623,243.798245 249.739767,246.408036 C251.479491,247.626098 252.397067,249.539437 254.48327,250.579987 L254.48327,250.232914 C253.264131,248.666661 252.91597,246.405859 251.870436,244.666134 C250.304183,242.926411 248.737929,241.186687 247.171676,239.446964 C242.821814,233.186713 237.425235,227.62042 231.338569,223.09306 C226.289435,219.44083 214.808897,213.527248 212.372733,207.26482 C212.372733,207.26482 212.199197,207.091284 212.025662,206.917749 C215.678806,206.571783 219.853701,204.82897 223.159748,203.783436 C228.902783,202.04371 234.122177,202.217246 240.035759,200.477522 C242.645551,199.778889 245.255342,198.733355 247.865133,197.861614 L247.865133,196.468883 C245.428969,194.032719 243.686153,190.727769 241.076362,188.291605 C234.290685,182.031354 226.808583,176.117772 219.332605,171.074479 C215.506967,168.464688 210.631264,166.724964 206.62896,164.288799 C204.887148,163.244354 201.929242,162.723929 200.710092,161.157675 C197.405132,157.85054 195.315948,153.327339 192.880871,149.499525 C187.831737,141.496459 183.129754,132.449229 178.95487,123.92777 C175.821587,117.667519 173.558936,111.407268 169.905792,105.493686 C148.914233,71.8731764 126.103902,51.4046577 92.4835197,27.5506415 C85.8718144,23.0274415 78.2134452,20.9358645 70.5550759,17.6309052 C65.8530927,17.2838319 61.1511094,16.7631862 56.4491262,16.4161129 C53.1441669,14.8498593 49.8392077,11.0231441 46.7078208,9.28342062 C36.1939566,2.67171524 7.41365831,-8.90743581 0.974402109,8.7627749 C-3.1569571,20.2372316 8.85639267,31.5509573 12.1613519,37.2900542 C14.5975156,41.2931815 17.7289025,45.8163815 19.4682661,50.1659092 C20.3400075,52.9491497 20.5135431,55.9059625 21.5590777,58.8627754 C24.1688685,66.8658415 26.9521089,75.7419832 30.6052517,83.0511686 C32.5185904,86.7043114 34.6101673,90.5310265 37.0463311,93.8359857 C38.6125847,95.9275627 41.3958251,96.9730973 42.2675666,100.104484 C39.8314028,103.409444 39.6578672,108.45858 38.0916136,112.808107 C31.6530723,132.275757 34.7837029,156.303489 42.9662013,170.742672 C45.0577783,174.394729 50.9733393,183.617447 60.2793644,181.008772 C68.4631785,178.746245 66.7238149,168.116616 68.8153918,160.113549 C69.3360375,158.194211 68.9889642,156.971989 69.8607057,155.57926 L69.8607057,155.926333 C71.7740444,159.578388 73.6873831,163.230443 75.6007218,166.882498 C81.1609525,175.412008 89.8558174,184.115093 97.1650028,190.548751 C101.16813,194.200806 104.473089,200.287472 109.522224,202.723636 L109.522224,202.376563 L109.174064,202.376563 C108.301235,201.157415 107.081996,200.633899 106.036462,199.588365 C103.600298,196.978574 100.990507,193.846288 98.9010946,191.063047 C92.2893893,182.359961 86.3738283,172.791669 81.1609525,162.876482 C78.5511617,158.006516 76.2885881,152.789213 74.0260144,147.91951 C73.1542729,146.180873 73.1542729,143.571082 71.5880193,142.699341 C69.3254457,146.004301 65.8469037,148.787542 63.7553267,152.614169 C60.2757833,158.527751 59.9287099,166.00621 58.8831753,173.307899 C58.1849684,173.48252 58.3585041,173.308984 58.0114307,173.655057 C52.2716947,172.26123 50.1801177,166.347662 48.0885407,161.29878 C43.0394073,149.81217 42.0902903,130.616033 45.7434331,116.524164 C46.7889677,113.04785 51.3173785,103.651877 49.0548049,100.346917 C48.0092703,97.0419576 44.3561275,95.1286189 42.2645505,92.3453784 C39.6547597,88.8688828 36.8715192,84.5193551 34.9581805,80.7962123 C30.2561973,71.4461357 27.6464065,61.0577166 22.7706066,51.8862758 C20.5080329,47.5367481 16.8548901,43.0135481 13.7235033,39.0104208 C10.2470077,34.4872208 6.42256404,31.3558339 3.8127732,26.1396484 C3.11147299,24.5733948 2.06275719,21.9636041 3.29008256,20.3973504 C3.8107282,18.6580032 4.85944401,18.1373576 6.77278273,17.7902842 C9.90417071,16.2240306 19.1211928,18.6601889 22.2525797,19.7057235 C29.7335102,22.1418873 36.3508736,24.4044609 42.6191279,27.8809565 C45.2289187,29.2736377 48.0121591,32.2304506 51.3171184,32.7510962 L55.6666461,32.7510962 C61.7538916,33.9694585 68.6676789,33.1022893 74.3730878,34.8416365 C84.1935387,37.9730234 93.1611308,42.6696889 101.338579,47.3662821 C120.935575,59.7278246 137.502533,77.1346644 148.815954,97.9136991 C150.729293,101.217658 151.600946,104.175474 153.166112,107.654057 C156.124015,114.266012 159.777159,120.877967 162.735063,127.316585 C165.692966,133.581796 168.477293,139.847007 172.82682,144.895054 C174.913824,147.504845 184.307241,148.724083 188.30937,150.116814 C191.267273,151.162348 195.789386,152.207882 198.573714,153.774135 C203.969206,156.732039 209.364697,160.037087 214.586901,163.168285 C217.197779,164.734539 224.330916,167.867912 225.028462,171.172872 L235.648276,194.211632 Z" fill="#00546B"></path>
</svg>
