<?xml version="1.0" encoding="UTF-8"?>
<svg width="256px" height="135px" viewBox="0 0 256 135" version="1.1" xmlns="http://www.w3.org/2000/svg" preserveAspectRatio="xMidYMid">
    <g>
        <path d="M64.7339924,96.4162355 L51.2037924,96.4162355 L45.5014867,123.823111 L55.8185316,123.823111 C63.6838175,123.823111 69.9200573,122.636973 74.2511755,120.067383 C78.7794662,117.46199 81.9798124,113.325222 83.9776283,107.657081 C85.1596432,104.320561 85.7062122,101.379025 85.5775669,98.8893655 C85.4624471,96.7659692 84.8185772,94.9170171 83.6167791,93.3725345 C82.4380731,91.8474789 80.8064672,90.6881689 78.7794662,89.9161619 C76.4116732,89.0106938 73.2376619,88.5771227 69.2819626,88.5771227 C65.1909813,88.5771227 61.4942662,88.9901184 58.2151755,89.8355642 L64.7339924,96.4162355 L64.7339924,96.4162355 Z M128.970502,70.3632169 L115.440302,70.3632169 L109.737996,97.7700959 L120.055041,97.7700959 C127.920327,97.7700959 134.156567,96.5839578 138.487685,94.0143585 C143.01441,91.4089322 146.214756,87.2721645 148.212572,81.6040237 C149.394587,78.2674273 149.941156,75.3259676 149.81251,72.8362316 C149.697391,70.7128354 149.053521,68.8638832 147.851723,67.3194006 C146.673017,65.794345 145.041411,64.635035 143.01441,63.8630281 C140.646617,62.9575599 137.472606,62.5239888 133.516906,62.5239888 C129.425925,62.5239888 125.72921,62.9369845 122.450119,63.7824303 L128.970502,70.3632169 L128.970502,70.3632169 Z M202.36577,27.3405713 L173.725325,123.823111 L186.815767,123.823111 L192.518073,96.4162355 L206.047616,96.4162355 L199.528891,89.8355642 C202.808639,88.9901184 205.630231,88.5771227 208.000339,88.5771227 C211.956039,88.5771227 215.130051,89.0106938 217.497844,89.9161619 C219.524844,90.6881689 221.15645,91.8474789 222.335156,93.3725345 C223.537612,94.9170171 224.181482,96.7659692 224.295943,98.8893655 C224.424589,101.379025 223.87802,104.320561 222.696005,107.657081 C220.698189,113.325222 217.497844,117.46199 213.969553,120.067383 C209.638435,122.636973 203.402195,123.823111 195.536909,123.823111 L185.219864,123.823111 L190.92217,96.4162355 L177.391971,96.4162355 L171.689665,123.823111 L157.505703,123.823111 L186.146148,27.3405713 L202.36577,27.3405713 L202.36577,27.3405713 Z M109.737996,27.3405713 L81.0975508,123.823111 L94.1873399,123.823111 L99.8896456,96.4162355 L113.419189,96.4162355 L106.900464,89.8355642 C110.180869,88.9901184 113.001804,88.5771227 115.371912,88.5771227 C119.327612,88.5771227 122.501624,89.0106938 124.869417,89.9161619 C126.896417,90.6881689 128.528023,91.8474789 129.706729,93.3725345 C130.909185,94.9170171 131.553055,96.7659692 131.667516,98.8893655 C131.796162,101.379025 131.249593,104.320561 130.067578,107.657081 C128.069762,113.325222 124.869417,117.46199 121.341126,120.067383 C117.010008,122.636973 110.773768,123.823111 102.908482,123.823111 L92.5914369,123.823111 L98.2937427,96.4162355 L84.7635427,96.4162355 L79.0612369,123.823111 L64.8772749,123.823111 L93.5177199,27.3405713 L109.737996,27.3405713 L109.737996,27.3405713 Z M200.251887,0 L55.7480916,0 C25.0607186,0 0,11.9538639 0,26.7003395 L0,107.841741 C0,122.588217 25.0607186,134.54208 55.7480916,134.54208 L200.251887,134.54208 C230.93926,134.54208 256,122.588217 256,107.841741 L256,26.7003395 C256,11.9538639 230.93926,0 200.251887,0 L200.251887,0 Z" fill="#777BB3"></path>
    </g>
</svg>
