<svg xmlns="http://www.w3.org/2000/svg" viewBox="0 0 400 400" fill="#3178C6"><path d="M0 200V0h400v400H0V200zm316.7 77.4c10.2-2.4 18-6.7 25.2-13.7 3.7-3.7 9.2-11.3 9.7-13.4 0-.4-17.4-12.3-28-18.9l-1.8-1-4.5 6.7c-6.3 9.7-12.9 14-22.8 14.7-14.7 1-24.2-6.6-24.2-19.4 0-4 .5-6.4 1.9-9.4 2.9-6.3 8.9-10.2 25.8-16.6 34.5-13.1 49.3-21.8 58.3-34.3 10.1-14 12.4-36.3 5.8-53.2-7.3-18.4-25.2-30.8-51.3-35.4-8.2-1.4-27.7-1.2-36.6.4-19.2 3.5-37.4 13.3-48.2 26-3.7 4.3-10.9 15.6-10.4 16.3a50 50 0 0 0 2.9 1.8l11.5 6.7 8.9 5.1 1.9-2.8c2.6-4 8.2-10.3 11.2-12.6 9.5-7.4 22.5-10.7 34.9-8.1 7.5 1.5 13.9 5.4 16.6 10 1.7 2.8 2.1 4.3 2.1 8.1 0 4-.4 5.2-2.5 8-3.5 4.8-10.6 8.8-30.5 17.1-22.6 9.4-32.4 15.3-41 24.4-5 5.3-9.7 13.9-11.8 21.4-1.7 6.3-2.1 21.8-.7 28.8 4.9 24.4 27.3 41.6 58.7 45 9.1 1 30.3-.2 40.3-2.3zM209.3 177v-27h-87v27h29.4v135h28.3V177h29.3z"/></svg>
